<svg width="513" height="500" viewBox="0 0 513 500" fill="none" xmlns="http://www.w3.org/2000/svg">
<path d="M38.9836 465V45H55.7836L253.784 388.8H244.784L441.584 45H458.384L458.984 465H439.184L438.584 75H445.184L254.384 406.8H243.584L51.5836 75H58.7836V465H38.9836Z" fill="black"/>
<path d="M282.6 460.32C252.44 460.32 224.407 455.293 198.5 445.24C172.98 434.8 150.553 420.3 131.22 401.74C112.273 383.18 97.5799 361.527 87.1399 336.78C76.6999 311.647 71.4799 284.387 71.4799 255C71.4799 225.613 76.6999 198.547 87.1399 173.8C97.5799 148.667 112.273 126.82 131.22 108.26C150.553 89.7 172.98 75.3933 198.5 65.34C224.407 54.9 252.44 49.68 282.6 49.68C310.827 49.68 337.313 54.1266 362.06 63.02C386.807 71.9133 407.88 85.2533 425.28 103.04L413.68 116.38C395.12 98.5933 375.013 86.0266 353.36 78.68C331.707 71.3333 308.313 67.66 283.18 67.66C255.727 67.66 230.207 72.4933 206.62 82.16C183.42 91.44 163.12 104.587 145.72 121.6C128.32 138.613 114.787 158.527 105.12 181.34C95.8399 203.767 91.1999 228.32 91.1999 255C91.1999 281.68 95.8399 306.427 105.12 329.24C114.787 351.667 128.32 371.387 145.72 388.4C163.12 405.413 183.42 418.753 206.62 428.42C230.207 437.7 255.727 442.34 283.18 442.34C307.927 442.34 331.32 438.667 353.36 431.32C375.787 423.587 395.7 411.02 413.1 393.62L424.7 408.12C406.913 425.52 385.647 438.667 360.9 447.56C336.153 456.067 310.053 460.32 282.6 460.32ZM406.14 406.96V257.9H424.7V408.12L406.14 406.96Z" fill="black"/>
</svg>
